<svg id="Capa_1" data-name="Capa 1" xmlns="http://www.w3.org/2000/svg" viewBox="0 0 226.77 113.39"><defs><style>.cls-1{fill:#005091;}</style></defs><path class="cls-1" d="M9.55,51.68c0-2.17,1.07-4.12,3.47-4.12s2.93,2.08,3.59,3.81c.8,2,2.14,4.22,4.54,4.22,1.51,0,3-.85,3-2.53,0-3.9-10.58-5.54-10.58-14,0-6.66,5.95-10.29,12.09-10.29a24.66,24.66,0,0,1,4.49.75c.57,0,1.37-.75,2.61-.75,2.63,0,4.81,4,4.81,6.34a3.63,3.63,0,0,1-3.47,3.77c-3.24,0-4.18-4.61-7.15-4.61a1.86,1.86,0,0,0-2.09,1.86c0,1.64,1.46,2.53,2.75,3.19,4.58,2.48,8.93,4.66,8.93,10.55,0,7.81-8,11.27-14.75,11.27-5.87,0-12.22-2.75-12.22-9.45"/><path class="cls-1" d="M50.92,60.47c-2,0-4.05.39-6.05.39-2.84,0-3.73-1.15-3.73-2.61,0-2.66,2.76-1.42,3.73-4.26,1-3.1,2.58-13.74,2.58-17.07S44.7,34.75,44.7,32.3s2.35-3.15,4.49-3.06c4.4.18,9.2.14,13.81.14a25.51,25.51,0,0,0,4.76-.54c1.51,0,3.73,2.44,3.73,6.62,0,1.64-.79,3.41-2.66,3.41-3.6,0-1.56-4.39-6.85-4.39-4.48,0-3.91.8-4.39,5.49-.14,1.74-.49,2.09,1,2.09,2.62,0,1.11-4.08,3.86-4.08s3,3.55,3,5.55c0,2.34-.8,8.11-3.92,8.11-3.28,0-.71-4.48-3.46-4.48-1.87,0-1.38,4.13-1.38,5.5,0,2.79.05,2.7,3,2.7,6.93,0,5.33-5.72,8.93-5.72,2.14,0,2.67,1.73,2.67,3.56,0,4.12-3.07,7.57-4.71,7.57a21.12,21.12,0,0,0-3.73-.3Z"/><path class="cls-1" d="M107.09,29c4,0,6.71.31,6.71,2.88,0,2.76-3.87.93-4.18,3.91-.05.35-.62,2.79-.8,4.16L107,52.57c-1,7-2.62,8.25-5.2,8.25-2.8,0-4.31-2.66-5.69-4.7l-6.48-9.76c-.36-.53-1.6-2.52-2.36-2.52-1,0-1.11,2.66-1.2,3.28-.22,1.37-.67,6.2-.67,6.83,0,3,3.11,2.17,3.11,4.25,0,2.53-4.13,2.62-5.9,2.62-1.92,0-7.79,0-7.79-2.84,0-2.22,2.67-1.42,3.3-3.1,2.66-7.19,2.8-13.71,3.33-18.49.35-3.38-3.56-1-3.56-4.09S81.49,29,86.6,29c3.87,0,4.58.45,7.47,5.06l5,7.5c.27.39,2,3.05,2.53,3.05,1.56,0,1.51-8.07,1.56-7.76l-.09.09v-.09c.26-5.32-3.6-1.28-3.6-5,0-1-.22-2.88,7.6-2.88"/><path class="cls-1" d="M129.48,48c-.66-.09-1.33-.27-1.33-.75,0-.75,2.4-6.61,3.51-6.61.76,0,2.18,4.39,2.18,6.21,0,.71-.18,1.06-1.47,1.15Zm3.69,5.1c1,.31,2.09.22,2.09,1.6,0,2.08-2.84,1-2.84,3.55,0,2.88,5.11,2.57,6.93,2.57,2.22,0,9.38.31,9.38-3.15,0-3-2.45-.75-3.25-4.3-.75-3.28-3.33-15.08-4.67-18.8s-3-5.81-7.06-5.81c-2.75,0-4.49.53-5.15,3.59-1.56,7-7.21,14.9-11.2,21.55-1.92,3.15-4.05,1.16-4.05,4s3.38,2.93,5.56,2.93c7.6,0,8.26-1.42,8.26-3,0-2.4-2.53-1.38-2.53-2.79,0-1.16.36-1.78,2.58-2Z"/><path class="cls-1" d="M153,51.68c0-2.17,1.07-4.12,3.46-4.12s2.94,2.08,3.61,3.81c.79,2,2.13,4.22,4.53,4.22,1.51,0,3-.85,3-2.53,0-3.9-10.57-5.54-10.57-14,0-6.66,6-10.29,12.09-10.29a24.84,24.84,0,0,1,4.49.75c.57,0,1.37-.75,2.62-.75,2.62,0,4.8,4,4.8,6.34a3.63,3.63,0,0,1-3.47,3.77c-3.24,0-4.18-4.61-7.15-4.61a1.86,1.86,0,0,0-2.09,1.86c0,1.64,1.46,2.53,2.76,3.19C175.61,41.79,180,44,180,49.86c0,7.81-8,11.27-14.75,11.27-5.86,0-12.22-2.75-12.22-9.45"/><path class="cls-1" d="M199.16,48c-.66-.09-1.33-.27-1.33-.75,0-.75,2.39-6.61,3.5-6.61.76,0,2.18,4.39,2.18,6.21,0,.71-.17,1.06-1.47,1.15Zm3.69,5.1c1,.31,2.09.22,2.09,1.6,0,2.08-2.85,1-2.85,3.55,0,2.88,5.11,2.57,6.94,2.57,2.22,0,9.37.31,9.37-3.15,0-3-2.44-.75-3.25-4.3-.75-3.28-3.32-15.08-4.66-18.8s-3-5.81-7.07-5.81c-2.75,0-4.48.53-5.15,3.59-1.55,7-7.2,14.9-11.2,21.55-1.91,3.15-4,1.16-4,4s3.38,2.93,5.56,2.93c7.59,0,8.26-1.42,8.26-3,0-2.4-2.54-1.38-2.54-2.79,0-1.16.36-1.78,2.58-2Z"/><rect class="cls-1" x="9.55" y="79.5" width="128.28" height="2.29"/><path class="cls-1" d="M153.24,76.38c.21-1.42.23-2,.79-2,.89,0,1.28.51,1.28,1.39,0,1.26-.31,4.08-2,4.08-.33,0-.42,0-.42-.38a13,13,0,0,1,.16-1.31Zm-.64,5.82c.36,0,.69,0,1.05,0,5.13,0,7.1-3,7.1-5.94,0-3.12-2.13-4.08-4.88-4.08-1.16,0-2.34.11-3.49.11-.76,0-2.35-.11-3.42-.11s-2.37.2-2.37,1.44,1.58.51,1.58,1.6a53.16,53.16,0,0,1-1.41,9.5c-.42,1.44-1.6.45-1.6,1.8,0,.55,0,1.48,3.93,1.48,3.49,0,4.85-.4,4.85-1.53,0-1.53-1.8-.09-1.45-2.61Z"/><path class="cls-1" d="M167.19,87.86c-1,0-2,.19-3,.19-1.42,0-1.86-.57-1.86-1.3,0-1.34,1.37-.71,1.86-2.13a46.85,46.85,0,0,0,1.29-8.53c0-1.73-1.38-1.09-1.38-2.31s1.18-1.57,2.25-1.53c2.2.1,4.6.07,6.9.07a13.22,13.22,0,0,0,2.38-.26c.75,0,1.87,1.21,1.87,3.3,0,.82-.41,1.7-1.34,1.7-1.8,0-.78-2.19-3.42-2.19-2.24,0-1.95.4-2.2,2.75-.06.86-.24,1,.5,1,1.3,0,.55-2,1.92-2s1.49,1.77,1.49,2.77c0,1.17-.39,4.06-2,4.06s-.36-2.25-1.74-2.25c-.93,0-.68,2.07-.68,2.75,0,1.4,0,1.36,1.49,1.36,3.46,0,2.66-2.86,4.46-2.86,1.06,0,1.33.86,1.33,1.77,0,2.06-1.53,3.79-2.35,3.79a10.66,10.66,0,0,0-1.87-.15Z"/><path class="cls-1" d="M188.33,75.62c.07-.51,0-1.1.65-1.1,1,0,1.17.62,1.17,1.45,0,1-.22,2.89-1.55,2.89-.62,0-.58-.29-.53-.78Zm-.66,6.14c.06-.56.13-.62.69-.62a1.12,1.12,0,0,1,1.19.71c.8,2.43-.37,6.18,4.31,6.18,1,0,3.16-.33,3.16-1.62,0-.46-.49-.59-.87-.75a.78.78,0,0,1-.58-.58c-.31-1-.13-2.59-.53-3.81-.2-.58-.51-.75-1-1.09-.22-.17-.44-.26-.44-.57,0-.55,2.49-1,2.28-3.9-.19-2.62-2.26-3.47-4.79-3.41H183.8c-1,0-2.26.26-2.26,1.51,0,.68.31.75.89.9.33.09.51.12.58.49a32.88,32.88,0,0,1-1.18,9.33c-.34.78-.34.87-1.05,1.11a.79.79,0,0,0-.66.84c0,1.66,3.2,1.55,4.19,1.55s4.43.07,4.43-1.5c0-.51-.32-.67-.74-.87s-.53-.53-.53-1.13Z"/><path class="cls-1" d="M215.78,80.34c-.58,4-1.38,7.83-7.49,7.83-3.57,0-6.7-1.16-6.7-4.7,0-2.57.91-5.41.89-7.69,0-1.51-1.46-.49-1.46-1.82,0-.18-.52-1.81,5.15-1.81,3.5,0,3.6.91,3.6,1.52,0,1.55-1.74.34-2,2.92-.64,5.14-.56,3.77-.74,5.9-.13,1.62.49,2.53,2.07,2.53a2.84,2.84,0,0,0,2.91-2,24.89,24.89,0,0,0,1-7.24c0-1.71-1.75-.62-1.75-2.22,0-.84.6-1.39,3.51-1.39,3.73,0,3.57,1,3.57,1.34,0,1.62-1.67.52-1.93,2.31Z"/></svg>